<?xml version="1.0" encoding="utf-8"?>
<!-- Generator: Adobe Illustrator 19.2.1, SVG Export Plug-In . SVG Version: 6.00 Build 0)  -->
<svg version="1.1" id="layer" xmlns="http://www.w3.org/2000/svg" xmlns:xlink="http://www.w3.org/1999/xlink" x="0px" y="0px"
	 viewBox="0 0 652 652" style="enable-background:new 0 0 652 652;" xml:space="preserve">
<style type="text/css">
	.st0{fill:#004896;}
	.st1{fill:#EF7C00;}
	.st2{fill:#FFFFFF;}
</style>
<path class="st0" d="M570.6,493.6c0,43.1-35,78.1-78.1,78.1H148.7c-43.1,0-78.1-35-78.1-78.1V149.8c0-43.1,35-78.1,78.1-78.1h343.8
	c43.1,0,78.1,35,78.1,78.1V493.6z"/>
<path class="st1" d="M451.9,233.8c0,72.5-58.8,131.2-131.2,131.2c-72.5,0-131.2-58.8-131.2-131.2c0-72.5,58.8-131.2,131.2-131.2
	C393.2,102.6,451.9,161.4,451.9,233.8"/>
<path class="st2" d="M246.9,291.7c0,0,0.1,0.1,0.1,0.1C246.9,291.8,246.9,291.7,246.9,291.7"/>
<path class="st2" d="M248,292.9c-0.2-0.2-0.6-0.6-0.9-0.9C247.5,292.4,247.8,292.7,248,292.9"/>
<path class="st2" d="M130.8,186.6c1.5-1,97.4-2.6,102.6,0.2c5.2,2.8-16.5,6-68.7,4.1C112.6,189,130.8,186.6,130.8,186.6"/>
<path class="st2" d="M112,212.9c1.7-1.2,107.9-4,113.6-0.6c5.7,3.4-18.3,7.6-76.1,5.6C91.8,215.9,112,212.9,112,212.9"/>
<path class="st2" d="M142.6,243c1.5-0.8,97.6-5.1,103-3c5.3,2.1-16.3,5.4-68.7,5.4C124.4,245.5,142.6,243,142.6,243"/>
<path class="st2" d="M432.8,193.6c-28.9-6.7-103.3-16.6-147.6-13c39.2,3.5,106,9.1,141.7,21C428.8,198.9,432.9,197.2,432.8,193.6"/>
<path class="st2" d="M411,215.5c-39.2-9-60.8-18.7-133.3-18l11.5,1c37.6,5.3,78.9,7.6,112.8,24.9l3,3
	C409.1,223.7,410.2,219.8,411,215.5"/>
<path class="st2" d="M276.4,220.3c-2.9,0.5,27.9,4.8,36,6.2c19.7,3.3,41.8,9.1,61.1,16.1c6,2.1,17,9.1,20.3,0.6
	c1.4-3.6-6.8-6-15.6-8.3C378.3,234.9,322.9,219.5,276.4,220.3"/>
<path class="st2" d="M412.6,163.3l-3.3,2.2l-27.8,44.6c-3.6,6.3-17.5,19.4-17.5,27.1c7.9-1.3,18.8-20.3,23-25.3
	c12.5-14.9,21.8-28.6,33.9-44.4C421.4,163.6,415.4,164.7,412.6,163.3"/>
<path class="st2" d="M385.4,160.3l-7.5,0.6c-8.2,15.8-22,36.2-30.4,53l-7.7,16.9c13.8-15.8,36.1-52.1,47.2-68.9L385.4,160.3z"/>
<path class="st2" d="M404.3,158c-16.5-1.8-35.9-0.5-52.6-1.4c0,0-72.9,3.4-80.8,5.9c-4.7,1.5-1,3,10.5,3.6
	c8.7,0.5,22.5,0.1,22.5,0.1c2.4-0.3,11.9,0,11.9,0s48.2,0.7,66.9,0c12,0.6,23.7,2,34.9,4.6l-1,0.9c2.5-0.3,7.1,0.3,10,1.8
	c8.8,4.2,7.9,13.7,2.2,19.7c-15,15.9-24.7,27.3-40,46.1l3.2,6.7l11.5-11.1c22.7-22.8,34.8-33.3,45.2-58.2
	C450.6,172.2,453.2,163.3,404.3,158"/>
<path class="st2" d="M341.9,160.3l-3.6,0.3c-3.8,10.3-9.6,19.2-13.4,30.3c0,0-15,30.9-12.5,35.5h1.7c9.4-13.5,20-48.7,31.1-61.5
	C345.9,162.4,344.3,160.6,341.9,160.3"/>
<path class="st2" d="M404.3,158c-16.5-1.8-52.6-1.4-52.6-1.4s-72.9,3.4-80.8,5.9"/>
<path class="st2" d="M374.9,307c-3.4,1.3-13,0.2-12.3-6.3c0.7-7,9.6-9.1,13.9-6C380.7,297.8,379,305.4,374.9,307 M265.9,301.7
	c-1.5,3.5-6.3,6.9-11,5c-3.9-1.6-3.7-6-3-9c1.1-5,8.3-9.7,13-6c0.5,0.4,0.9,0.8,1.3,1.3c0,0,0,0,0,0c0.1,0.1,0.1,0.1,0,0
	c0,0,0,0,0,0C267.8,295.5,266.9,299.5,265.9,301.7 M386.6,289.8c0,0-2.3-2-4.5-2.8c-0.7-0.3-1.4-0.5-2.2-0.8
	c-41.1-13.6-101.3-8.9-125-2.4c-2.1-1.3-2.2-3.5-2.1-5.6c2.1-33,15-26.5,64.2-23.4c32.7,2.1,77.9,11.7,79.9,12
	c1.9,0.3,1.9-3.1,0.7-5c-5-8.5-38.5-11.1-47.9-12.1c-8.6-0.9-35.4-4.1-35.4-4.1l-41.4-3.8c-0.6-4.3-15.4-58-17.1-62.3
	c-9.1-22.5-19-54.4-53.2-54.4c-18.4,0-21.1,10.3-17.6,13c3.2,2.4,18.5-9.3,31.8-0.8c20.3,12.8,29.3,42.8,30.7,48.6
	c1.1,4.7,14.8,52.2,12,55.2c-9.2,10-14.8,21.9-15.8,32c-0.4,4.5,1.3,16.5,1.3,16.5c-2.5,6.3-6.9,11-3.1,18.7c3.5,6.4,8.9,8,15.2,7.8
	c1.8-0.1,9.9,0.5,16.7-7.2c6.6-7.4,3.2-15.9,2.4-18.6c20.1-1.6,72.9-1.2,79,2.8c-2.2,4.4-2.9,12.9,0,17.6
	c5.2,8.3,12.6,10.5,21.4,7.8c7.7-2.3,11.2-6.6,13.8-15C392.5,297.1,390.6,293.2,386.6,289.8"/>
<path class="st2" d="M389.4,484.3c0.6-0.3,1-1,1-1.7l-0.1-15.8c0-0.7-0.6-1.3-1.3-1.3H389c-0.6,0-7.7-0.2-11.8,0.1
	c-4.1,0.3-8.3,1.1-10.5,3.5c-1.7,1.9-3.1,5.9-2.2,9.8c0.6,2.5,2.4,4.7,4.9,5.8c2.8,1.1,7.3,1.4,10.8,1.2
	C383.8,485.5,388.8,484.6,389.4,484.3 M389.5,449.5c0.6-0.1,1-0.6,1-1.2l0-0.2c0.1-0.7,0-1.6,0-2c-0.4-6.1-4.8-8.6-10.4-9.3
	c-4.8-0.6-9.3-0.2-14,0.5c-2.5,0.4-5,0.9-7.5,1.4c-1.5,0.3-3.3,1-4.8,1l-0.1,0h-0.3c-1.2-0.1-2.3-1-2.6-2.1l-2.8-12.3
	c0-0.1,0-0.2,0-0.3c0-1.2,0.7-2.3,1.8-2.8l0.2-0.1c1.6-0.8,9.7-2.5,11.9-3c4.4-0.9,8.9-1.4,13.4-1.7c2.5-0.2,5.1-0.2,7.7-0.1
	c6.9,0.2,13.9,1.7,19.9,5.2c5.9,3.5,9.5,9.8,10.8,17.5c0.6,4,0.5,13.7,0.5,13.7v35.3c0,0,0.1,4.9-0.5,6.6c-1,2.7-4.2,3.8-7.1,4.8
	c-3,1.1-6.3,2-9.3,2.5c-3.4,0.6-6.8,1.2-10.3,1.4c-5.3,0.4-11.5,0.4-16.9,0.1c-1.8-0.1-3.5-0.4-5.3-0.6
	c-10.1-1.4-18.2-5.6-22.1-13.2c-1.3-2.6-2.2-6-2.6-9.3c-0.4-3.7,0-7.6,0.8-10.8c2.2-9.3,8.9-15.7,17.7-18.8c2.8-1,5.7-1.6,8.7-1.9
	C376.2,448.9,389.4,449.5,389.5,449.5"/>
<path class="st2" d="M184.6,390.3c-52.5,0-48.9,56.9-48.9,56.9s-4.5,56.9,48.9,56.9c53.4,0,49-56.9,49-56.9S237.1,390.3,184.6,390.3
	 M208,447.2c0,0,1.6,34.8-23.4,34.8c-24.9,0-23.4-34.8-23.4-34.8s-0.4-34.8,23.4-34.8C208.3,412.3,208,447.2,208,447.2"/>
<path class="st2" d="M443,492.1c1.2,3.7,4.6,6.4,8.7,6.4h1.9c0.7,0,1.3,0.6,1.3,1.3L452,509c0,0-2.3,8-5.5,10.4
	c-2.1,1.6-5.3,2.1-8.5,2.1h-14.6c-2.4,0-4.3,1.9-4.3,4.3v11.3c0,2.4,1.9,4.3,4.3,4.3h8.3h0h10.6c4.7,0,9.3-0.7,12.6-2.1
	c3-1.3,5.4-2.7,7.7-4.8c4.1-3.8,6.2-8.8,8.9-16c2.7-7.1,32.8-97.4,32.8-97.4c0.1-0.2,0.1-0.4,0.1-0.6c0-1.4-1.1-2.5-2.5-2.5h-18.9
	c-2,0-3.6,1.3-4.1,3.1l-16.4,55.7c-0.2,0.5-0.6,0.9-1.2,0.9c-0.6,0-1.1-0.4-1.2-0.9l-15.3-55.3c-0.4-2-2.1-3.4-4.2-3.4h-19.3
	c-1.4,0-2.5,1.1-2.5,2.5c0,0.2,0,0.5,0.1,0.7L443,492.1"/>
<path class="st2" d="M243.6,396.5c0-2,1.7-3.7,3.7-3.7h17.1c2.1,0,3.7,1.7,3.7,3.7V435c0,0.7,0.5,1.2,1.2,1.2c0.4,0,0.8-0.2,1-0.5
	l31-39.4c1.7-2.1,4.3-3.4,7.1-3.4h21c1.4,0,2.5,1.1,2.5,2.5c0,0.6-0.2,1.1-0.5,1.6l-28.9,34.4c-0.4,0.4-0.6,1-0.6,1.7
	c0,0.4,0.1,0.8,0.3,1.2l36.3,65.5c0.1,0.3,0.2,0.6,0.2,0.9c0,1.4-1.1,2.5-2.5,2.5H317c-3.4,0-6.3-1.8-7.9-4.6L285.4,454
	c-0.2-0.3-0.6-0.6-1-0.6c-0.3,0-0.6,0.1-0.9,0.3L269,471.1c-0.6,0.7-1,1.7-1,2.7l0.1,25.6c0,2-1.7,3.7-3.7,3.7h-17.1
	c-2,0-3.7-1.7-3.7-3.7V396.5z"/>
</svg>
