<?xml version="1.0" encoding="utf-8"?>
<!-- Generator: Adobe Illustrator 19.2.1, SVG Export Plug-In . SVG Version: 6.00 Build 0)  -->
<svg version="1.1" id="layer" xmlns="http://www.w3.org/2000/svg" xmlns:xlink="http://www.w3.org/1999/xlink" x="0px" y="0px"
	 viewBox="0 0 652 652" style="enable-background:new 0 0 652 652;" xml:space="preserve">
<style type="text/css">
	.st0{fill:#0052A1;}
	.st1{fill-rule:evenodd;clip-rule:evenodd;fill:#FFFFFF;}
	.st2{fill:none;stroke:#FFFFFF;stroke-width:4.5033;stroke-miterlimit:3.864;}
	.st3{fill:#FFFFFF;}
	.st4{fill:none;stroke:#FFFFFF;stroke-width:1.5078;stroke-miterlimit:3.864;}
	.st5{fill:none;stroke:#FFFFFF;stroke-width:1.4877;stroke-miterlimit:3.864;}
	.st6{fill-rule:evenodd;clip-rule:evenodd;fill:#0075C1;}
	.st7{fill:none;stroke:#FFFFFF;stroke-width:1.3269;stroke-miterlimit:3.864;}
	.st8{fill:#C3D60B;}
	.st9{fill-rule:evenodd;clip-rule:evenodd;fill:#C3D60B;}
</style>
<g>
	<path class="st0" d="M271.2,73.3c11.3,0.7,109.1,0.1,157.5,0.1c33.3,0,79.3-2.1,80.4,46.2c0.3,13,0.5,66,0.5,90.6
		c0,41.4-3.1,108.1-2.8,116.6c8.2,224,2.2,233.6-36.5,238.8c-181.4,8.7-158.8,6-294,0.9c-55.5-2.1-43.4-81.4-43.4-118.3
		c0-86.7,8.5-177.7,2.6-264.1C128.2,78.2,124,64.5,271.2,73.3"/>
	<path class="st1" d="M168.1,467.6c-2.3,0,0.3-6,2.8-5.2c1,0.4,3.1,2.5,2.8,3.4c0.3,0.5-0.2,0.7-0.3,0.7
		C169.9,466.4,169.6,467.6,168.1,467.6 M168.4,473.4c0.6,18.5,0,65.9-0.6,72.5c-0.2,3.2,2,4.5,2,4.5s2.4,0.6,3.8,0.4
		c4.1-0.7,2.9-8.8,2.9-8.8l0.6-27c4.3-2.4,9.3,7.8,16.4,7.8c8.7,0,23.5-6.8,23.5-27.7c0-21.4-12.8-29.9-23.9-29.9
		c-6.2,0-13,1.5-17.2,5.2l-2.3-3.2C173.7,467.3,168.2,465.4,168.4,473.4 M175.4,488.7c0.2-5.3,2.9-13.4,2.9-13.4
		c2.8-4.7,8-3.8,15-3.8c12.7,0,14.2,15.3,14.2,23.5c0,16-9,21.2-15.3,21.2c-6.4,0-11.4-4.5-14-9.2
		C178.3,507,175.1,495.9,175.4,488.7"/>
	<path class="st2" d="M168.1,467.6c-2.3,0,0.3-6,2.8-5.2c1,0.4,3.1,2.5,2.8,3.4c0.3,0.5-0.2,0.7-0.3,0.7
		C169.9,466.4,169.6,467.6,168.1,467.6z M168.4,473.4c0.6,18.5,0,65.9-0.6,72.5c-0.2,3.2,2,4.5,2,4.5s2.4,0.6,3.8,0.4
		c4.1-0.7,2.9-8.8,2.9-8.8l0.6-27c4.3-2.4,9.3,7.8,16.4,7.8c8.7,0,23.5-6.8,23.5-27.7c0-21.4-12.8-29.9-23.9-29.9
		c-6.2,0-13,1.5-17.2,5.2l-2.3-3.2C173.7,467.3,168.2,465.4,168.4,473.4z M175.4,488.7c0.2-5.3,2.9-13.4,2.9-13.4
		c2.8-4.7,8-3.8,15-3.8c12.7,0,14.2,15.3,14.2,23.5c0,16-9,21.2-15.3,21.2c-6.4,0-11.4-4.5-14-9.2
		C178.3,507,175.1,495.9,175.4,488.7z"/>
	<path class="st1" d="M234.3,444.2c-0.6,8-0.7,15.7-0.7,17.5c0,16.9,1,37.8,0.7,58.5c-0.1,3.3,9.9,1.9,9.9-0.5
		c-0.4-36.4-2.9-47.4-1.2-76.5C243.2,440.3,234.5,441.4,234.3,444.2 M237.7,478.1c0-1.2-0.2-1.9-0.7-3c-0.8-2-0.2,7.7,0.4,5.6
		C237.5,479.8,237.7,479.2,237.7,478.1"/>
	<path class="st2" d="M234.3,444.2c-0.6,8-0.7,15.7-0.7,17.5c0,16.9,1,37.8,0.7,58.5c-0.1,3.3,9.9,1.9,9.9-0.5
		c-0.4-36.4-2.9-47.4-1.2-76.5C243.2,440.3,234.5,441.4,234.3,444.2z M237.7,478.1c0-1.2-0.2-1.9-0.7-3c-0.8-2-0.2,7.7,0.4,5.6
		C237.5,479.8,237.7,479.2,237.7,478.1z"/>
	<path class="st1" d="M302.2,518.5c-1.3-1.8,0-2.4,0-2.4C301.3,515.7,306.5,524.6,302.2,518.5 M299.8,495
		c-1.4-1.8,1.2-10.3,1.2-10.3C300.1,484.4,301.6,497.2,299.8,495 M268.4,516.1l1.4,0.4c0,4.3-0.2-0.2-0.9,1.2
		C268.8,517.7,266.7,520.1,268.4,516.1 M299.4,490.7l0.7,16c0.9,2.9-11.1,8.9-18.3,8.9c-5.5,0-12-4.5-12-9.1
		c0-9.8,30.5-21.4,29.7-16.5L299.4,490.7z M307.4,520.3c2.3-0.1,1.4-11.1,1.3-12.4l-1.4-24.3c-0.6-12.4-10.7-18.4-19.5-18.4
		c-9.8,0-23.3,10.1-20.5,11.3l1,2.1c4,3.8,7.2-5.9,19.2-6.8c10.7-0.8,12.5,3.4,12.5,9.6v3.1l-2.9,0.7c-14.2,3.3-33.6,6.6-33.6,22.2
		c0,8.6,7.9,15.6,17.8,15.6c7.6,0,12-6.9,18.7-8.5l2.1,6.5L307.4,520.3z"/>
	<path class="st2" d="M302.2,518.5c-1.3-1.8,0-2.4,0-2.4C301.3,515.7,306.5,524.6,302.2,518.5z M299.8,495
		c-1.4-1.8,1.2-10.3,1.2-10.3C300.1,484.4,301.6,497.2,299.8,495z M268.4,516.1l1.4,0.4c0,4.3-0.2-0.2-0.9,1.2
		C268.8,517.7,266.7,520.1,268.4,516.1z M299.4,490.7l0.7,16c0.9,2.9-11.1,8.9-18.3,8.9c-5.5,0-12-4.5-12-9.1
		c0-9.8,30.5-21.4,29.7-16.5L299.4,490.7z M307.4,520.3c2.3-0.1,1.4-11.1,1.3-12.4l-1.4-24.3c-0.6-12.4-10.7-18.4-19.5-18.4
		c-9.8,0-23.3,10.1-20.5,11.3l1,2.1c4,3.8,7.2-5.9,19.2-6.8c10.7-0.8,12.5,3.4,12.5,9.6v3.1l-2.9,0.7c-14.2,3.3-33.6,6.6-33.6,22.2
		c0,8.6,7.9,15.6,17.8,15.6c7.6,0,12-6.9,18.7-8.5l2.1,6.5L307.4,520.3z"/>
	<path class="st3" d="M339,479.8c3.6-3.7,6.3-11.7,16.5-8.3c9.1,3.1,8.5,9.6,9.1,15.1c0,0,1.3,7.6,1.4,12.4
		c0.1,5.6-2.6,15.9-3.1,20.2c-0.4,2.1,2.3,1.5,2.3,1.5l3.8-0.5c0,0,1.2-1.9,1.6-3c6-12,2.5-33.7,2.5-33.7
		c0.9-14.2-7.3-18.4-16.4-18.4c-7.3,0-12.3,3.5-17.7,7.2l-1.2-3.2c0,0-0.2-1.9-0.9-2.8c-1.5-1.8-7-0.7-7-0.7l1.7,53.5
		c0,0,1.6,3.1,3.5,3c1.6-0.1,2.7-3,2.7-3L339,479.8z"/>
	<path class="st2" d="M339,479.8c3.6-3.7,6.3-11.7,16.5-8.3c9.1,3.1,8.5,9.6,9.1,15.1c0,0,1.3,7.6,1.4,12.4
		c0.1,5.6-2.6,15.9-3.1,20.2c-0.4,2.1,2.3,1.5,2.3,1.5l3.8-0.5c0,0,1.2-1.9,1.6-3c6-12,2.5-33.7,2.5-33.7
		c0.9-14.2-7.3-18.4-16.4-18.4c-7.3,0-12.3,3.5-17.7,7.2l-1.2-3.2c0,0-0.2-1.9-0.9-2.8c-1.5-1.8-7-0.7-7-0.7l1.7,53.5
		c0,0,1.6,3.1,3.5,3c1.6-0.1,2.7-3,2.7-3L339,479.8z"/>
	<path class="st1" d="M430,492.7c-1.4-1.8,0.5-4.3,0.5-4.3C429.5,487.9,431.7,494.8,430,492.7 M420.9,489.5
		c-8.4,1.3-22.1,2.1-22.1,2.1c-3.2,0.1-1.4-13.5,7.1-17.7c2.7-1.3,7-3.9,11.4-3.2c3.6,0.7,9.9,2.4,11.1,6.1c0.3,1.1,1.6,0.4,1.4,3.1
		c-0.5,4.9,1.5,9.7,0,10.1C429.8,490,423.6,489.1,420.9,489.5 M406.7,495.4c5.5-3,30-1.3,30-1.3c1.9-0.3,2-5.6-0.1-11.9
		c-0.3-0.9-0.8-4.9-1.3-5.7c-0.9-1.5-1.2-0.3-2.1-1.8c-1.7-2.9-3.3-5.4-6.4-5.7c-0.9-0.1-1.6-2.5-2.1-2.7c-2.8-1.3-5.2-1.1-9-1.1
		c-4.7,0-9.6,1.3-13.1,2.7c-2.8,1.1-1.6,1.1-2.1,1.7c-4.2,5.4-9.4,11.7-10.6,24.5c-0.2,2.9-0.7,5.6,0,7.9
		c4.8,14.5,13.4,20.9,25.8,20.9c11.1,0,22.3-13.7,18.3-13.6l-0.7-1.3c-3-0.8-15.5,12.1-18.3,11.2c-21.1-5.6-17.6-15.7-17.6-23.6
		C397.3,495.5,403.6,497,406.7,495.4"/>
	<path class="st2" d="M430,492.7c-1.4-1.8,0.5-4.3,0.5-4.3C429.5,487.9,431.7,494.8,430,492.7z M420.9,489.5
		c-8.4,1.3-22.1,2.1-22.1,2.1c-3.2,0.1-1.4-13.5,7.1-17.7c2.7-1.3,7-3.9,11.4-3.2c3.6,0.7,9.9,2.4,11.1,6.1c0.3,1.1,1.6,0.4,1.4,3.1
		c-0.5,4.9,1.5,9.7,0,10.1C429.8,490,423.6,489.1,420.9,489.5z M406.7,495.4c5.5-3,30-1.3,30-1.3c1.9-0.3,2-5.6-0.1-11.9
		c-0.3-0.9-0.8-4.9-1.3-5.7c-0.9-1.5-1.2-0.3-2.1-1.8c-1.7-2.9-3.3-5.4-6.4-5.7c-0.9-0.1-1.6-2.5-2.1-2.7c-2.8-1.3-5.2-1.1-9-1.1
		c-4.7,0-9.6,1.3-13.1,2.7c-2.8,1.1-1.6,1.1-2.1,1.7c-4.2,5.4-9.4,11.7-10.6,24.5c-0.2,2.9-0.7,5.6,0,7.9
		c4.8,14.5,13.4,20.9,25.8,20.9c11.1,0,22.3-13.7,18.3-13.6l-0.7-1.3c-3-0.8-15.5,12.1-18.3,11.2c-21.1-5.6-17.6-15.7-17.6-23.6
		C397.3,495.5,403.6,497,406.7,495.4z"/>
	<path class="st3" d="M455.2,473.1l6.3,0.2v30.8c0,10-0.8,18.8,14.6,18.8c3.2,0,13.9-6.2,10-8.3l-1.6-1.1c-1.7-3.4-7,3.9-8.8,5.2
		c-5.7,4.2-5-5.8-5-11.2v-22v-8.3v-3.9l12.7-0.4l2.1-3.2c0,0-0.1-1.3-0.3-2c-1.5-4.5-14.5-1-14.5-1s-1.3-4.1-0.9-7.1
		c0.7-5.2-0.2-9.8-0.2-9.8s-4.2-2.9-6.1-1.7c-0.8,0.5-1.4,2.3-1.4,2.3l-0.5,16.3c0,0-6-1.8-7.7,0.2C452,469,455.2,473.1,455.2,473.1
		"/>
	<path class="st2" d="M455.2,473.1l6.3,0.2v30.8c0,10-0.8,18.8,14.6,18.8c3.2,0,13.9-6.2,10-8.3l-1.6-1.1c-1.7-3.4-7,3.9-8.8,5.2
		c-5.7,4.2-5-5.8-5-11.2v-22v-8.3v-3.9l12.7-0.4l2.1-3.2c0,0-0.1-1.3-0.3-2c-1.5-4.5-14.5-1-14.5-1s-1.3-4.1-0.9-7.1
		c0.7-5.2-0.2-9.8-0.2-9.8s-4.2-2.9-6.1-1.7c-0.8,0.5-1.4,2.3-1.4,2.3l-0.5,16.3c0,0-6-1.8-7.7,0.2C452,469,455.2,473.1,455.2,473.1
		z"/>
	<path class="st3" d="M456.2,359.5c0,0,1,3.9,3.8,3.9c9.7,0,5.6-3.4,22.6-1c2.8,0.3,6.9-5.5,6.9-5.5l-1.3-9.2c0,0-6.2-4.7-15.1-3.7
		c-12.5,1.6-1.4,0.8-10.7,0.3c-3.9-0.3-6.3,4.7-6.3,4.7V359.5z"/>
	<path class="st1" d="M184.3,308.9c0.2-8.3-0.4-16.5,3.8-21l15-1.8c38.8,1.9,49.3-1.2,49.3,27c0,28-31.2,32-52.5,29.5l-10.5-1.2
		C184.9,339.2,183.8,321.7,184.3,308.9 M189,386c0-9.9,1.3-25.6,1.3-25.6c0.6-4.7,4.9-1.8,7.7-2.3c3.2-0.6,8.7-1.2,8.7-1.2
		c36.5-0.4,52.1,11.5,52.1,30.7c0,17.5-12.2,36.7-52.5,33.6l-16.2-1.2C183,418.4,189,392.2,189,386 M177.7,432l37.4,1.8
		c46.3,2.1,54.9-25.8,54.9-44.7c0-20.4-11.5-34-31.4-39.8c17.3-4.1,27.5-17.5,27.5-34.6c0-17.9-11.1-40.6-53.6-41.3l-32.2-0.6
		c-20.1-0.7-12.4,45-13.2,74.4C165.9,380.5,161.6,434.9,177.7,432"/>
	<path class="st4" d="M184.3,308.9c0.2-8.3-0.4-16.5,3.8-21l15-1.8c38.8,1.9,49.3-1.2,49.3,27c0,28-31.2,32-52.5,29.5l-10.5-1.2
		C184.9,339.2,183.8,321.7,184.3,308.9z M189,386c0-9.9,1.3-25.6,1.3-25.6c0.6-4.7,4.9-1.8,7.7-2.3c3.2-0.6,8.7-1.2,8.7-1.2
		c36.5-0.4,52.1,11.5,52.1,30.7c0,17.5-12.2,36.7-52.5,33.6l-16.2-1.2C183,418.4,189,392.2,189,386z M177.7,432l37.4,1.8
		c46.3,2.1,54.9-25.8,54.9-44.7c0-20.4-11.5-34-31.4-39.8c17.3-4.1,27.5-17.5,27.5-34.6c0-17.9-11.1-40.6-53.6-41.3l-32.2-0.6
		c-20.1-0.7-12.4,45-13.2,74.4C165.9,380.5,161.6,434.9,177.7,432z"/>
	<path class="st1" d="M314.2,429.8c1-15.7-1.2-31.2-1.2-34.7c0-33.2-1.7-74.4-1.2-115.2c0.2-6.4-16.4-3.7-16.4,1
		c0.6,71.7,4.8,93.3,1.9,150.6C297.2,437.1,313.8,435.2,314.2,429.8"/>
	<path class="st1" d="M391.4,284c21.9,0,47.7,15.9,47.7,64.6c0,48.7-25.8,74.8-47.7,74.8c-21.9,0-44.6-24.1-44.6-72.8
		C346.7,301.9,369.4,284,391.4,284 M391.4,270.1c-32.9,0-57.2,30.7-57.2,83.5s24.3,83.5,57.2,83.5c32.9,0,57.2-30.7,57.2-83.5
		S424.2,270.1,391.4,270.1"/>
	<path class="st5" d="M391.4,284c21.9,0,47.7,15.9,47.7,64.6c0,48.7-25.8,74.8-47.7,74.8c-21.9,0-44.6-24.1-44.6-72.8
		C346.7,301.9,369.4,284,391.4,284z M391.4,270.1c-32.9,0-57.2,30.7-57.2,83.5s24.3,83.5,57.2,83.5c32.9,0,57.2-30.7,57.2-83.5
		S424.2,270.1,391.4,270.1z"/>
	<path class="st3" d="M325,251.1c7.9-1.3,13.9-0.7,25.8-6.6c11.9-5.9,16.5-2.6,19.8-12.5c3.3-9.9,2.7,0,9.9-9.2
		c7.3-9.2,4.6-4.6,5.3-8.5c0.7-3.9,2.7-6.6,4-12.5c1.3-5.9,5.3-3.9,6-11.8c0.7-7.9,2-2.6,1.3-9.2c-0.7-6.6-2.7-11.2-3.3-18.4
		c-0.7-7.2,4-12.5-1.3-20.4c-5.3-7.9-6-12.5-15.2-22.3c-9.2-9.9,3.3-7.2-12.5-13.8c-15.9-6.6-18.5-9.9-26.4-11.2
		c-7.9-1.3-8.6-5.2-17.8-3.9c-9.2,1.3-11.2-2-20.5,0.7c-9.2,2.6-8.6,5.2-15.2,7.2c-6.6,2-3.3-2-16.5,5.9s-9.9,9.2-13.2,12.5
		c-3.3,3.3-8.6,4.6-9.2,9.2c-0.7,4.6-2,5.9-3.3,12.5c-1.3,6.6-6.6,0-6.6,9.2c0,9.2,0.7,7.9,0,11.2c-0.7,3.3-6,6.6-4.6,9.9
		c1.3,3.3-0.7,3.9,1.3,11.8c2,7.9,4,8.5,5.3,15.8c1.3,7.2,1.3,7.9,3.3,11.8c2,3.9,9.9,10.5,13.2,16.4c3.3,5.9,5.3,7.2,12.5,12.5
		c7.3,5.2,7.9,5.9,16.5,8.5c8.6,2.6,7.3,5.9,14.5,5.9c7.3,0,5.9-3.3,13.9-0.7C319.7,253.7,317.1,252.4,325,251.1"/>
	<path class="st6" d="M325.7,97c4,0.3,18.8,3,29.4,10.5c10.6,7.6,19.5,16.7,23.1,23.6c3.6,6.9,5.3,9.5,5.3,9.5s1,4.6-1.3,3.6
		c-2.3-1-2.7,2,0,2c2.6,0,3-1.6,3-1.6s4.6,9.2,4.9,19.4c0.3,10.2,0.7,12.2-1,21.4c-1.6,9.2,1,1-2.3,2c-3.3,1,1.3,3-5.3,4.3
		c-6.6,1.3-12.9,1.6-12.9,1.6s2-1.6,5.3-0.7c3.3,1,4.3,0.7,6.9,0.3c2.6-0.3,6-4.3,6.6-3c0.6,1.3,0.3,2,0.3,2s-1,6.6-5.3,13.5
		c-4.3,6.9-5.6,10.2-13.2,18.4c-7.6,8.2-18.2,13.8-23.1,16.4c-5,2.6-7.9,3.6-7.9,3.6s0.3,0.7,0.3-2.6c0-3.3-2.3-5.9-2.3-5.9
		s1.6,3.6,1,5.9c-0.7,2.3-1.6,3-1.6,3s-3,1.6-11.2,2.6c-8.2,1-20.5,0.7-30.7-2.6c-10.2-3.3-20.8-6.9-30.4-16.4
		c-9.6-9.5-16.2-17.7-20.2-27.9c-4-10.2-4-13.1-4-13.1l-0.3-2.6c0,0-2.3-12.8,0-25c2.3-12.1,4-21.4,16.5-35.1
		c12.6-13.8,15.5-15.4,25.4-20.4c9.9-4.9,13.6-5.9,24.8-7.2C316.8,95.1,321.7,96.7,325.7,97"/>
	<path class="st3" d="M315.8,146c-4-0.7-1.3-3-4.6-1c-3.3,2-0.3,1.3-3.6-0.7c-3.3-2-3-1.6-4.3-0.3c-1.3,1.3,2.6,3-2.3,4.3
		c-5,1.3-1.3,3.3-4.6,4.3c-3.3,1-5.3-3.3-5.3-3.3s-4.6-1.3-5,1.6c-0.3,3-5.3,3.9-6.6,5.6c-1.3,1.6-4.3-3-5.3-0.7
		c-1,2.3-4-3.3-5.6,1.3c-1.6,4.6,2.3,15.4,4.3,17.7c2,2.3,6-2.6,8.9,5.2c3,7.9,7.6,9.9,9.2,13.1s4.3,1.3,4.9,5.9
		c0.7,4.6,1,4.9-2,9.9c-3,4.9-5,3.3-6,7.2c-1,3.9-0.3,4.9-2.7,7.9c-2.3,3,2,1.3-4,3.6c-6,2.3-8.9,0.3-7.6,2.3c1.3,2,8.3,5.6,9.6,3.6
		c1.3-2-1.3-1.3,6.3-4.9c7.6-3.6,11.9-11.2,18.2-12.8c6.3-1.6,8.2,1,11.9-7.5c3.6-8.5,2.7-24.3,10.9-24.3c8.3,0,3.6-0.6,6.3-7.5
		c2.6-6.9-3-7.2,2-8.9c5-1.6,3.6-2.6,5.6-2c2,0.7,3-0.3,5,1c2,1.3,7.6,2.3,7.6,2.3s-2,0.3,1.6,5.9c3.6,5.6,9.9,4.6,8.9,8.5
		c-1,3.9-5.6,15.4-3.3,10.8c2.3-4.6,2.3-5.6,9.9-7.6c7.6-2,9.9-4.3,12.2-6.2c2.3-2,3-4.6,3-4.6s0.3-7.9,0-14.8
		c-0.3-6.9-2.6-8.5-3-10.5c-0.3-2-0.3-6.3-1.3-4.6c-1,1.6-1.6,0.7-2.6-2.3c-1-3,2.3-2.6-0.3-5.9c-2.7-3.3-5.3,0-7.9,4.3
		c-2.6,4.3-1.6,2.3-2,0.3c-0.3-2-0.3-6.6-0.3-6.6s-4.9-9.9-6.6-6.2c-1.7,3.6-7.6,17.1-7.6,19.1s-1,8.9-3.3,10.8
		c-2.3,2-5.6,4.3-8.2,0.7c-2.7-3.6-13.6-5.9-15.2-4.9c-1.6,1-12.9-3.6-12.9-5.3C318.1,148.3,319.7,146.6,315.8,146"/>
	<path class="st7" d="M315.8,146c-4-0.7-1.3-3-4.6-1c-3.3,2-0.3,1.3-3.6-0.7c-3.3-2-3-1.6-4.3-0.3c-1.3,1.3,2.6,3-2.3,4.3
		c-5,1.3-1.3,3.3-4.6,4.3c-3.3,1-5.3-3.3-5.3-3.3s-4.6-1.3-5,1.6c-0.3,3-5.3,3.9-6.6,5.6c-1.3,1.6-4.3-3-5.3-0.7
		c-1,2.3-4-3.3-5.6,1.3c-1.6,4.6,2.3,15.4,4.3,17.7c2,2.3,6-2.6,8.9,5.2c3,7.9,7.6,9.9,9.2,13.1s4.3,1.3,4.9,5.9
		c0.7,4.6,1,4.9-2,9.9c-3,4.9-5,3.3-6,7.2c-1,3.9-0.3,4.9-2.7,7.9c-2.3,3,2,1.3-4,3.6c-6,2.3-8.9,0.3-7.6,2.3c1.3,2,8.3,5.6,9.6,3.6
		c1.3-2-1.3-1.3,6.3-4.9c7.6-3.6,11.9-11.2,18.2-12.8c6.3-1.6,8.2,1,11.9-7.5c3.6-8.5,2.7-24.3,10.9-24.3c8.3,0,3.6-0.6,6.3-7.5
		c2.6-6.9-3-7.2,2-8.9c5-1.6,3.6-2.6,5.6-2c2,0.7,3-0.3,5,1c2,1.3,7.6,2.3,7.6,2.3s-2,0.3,1.6,5.9c3.6,5.6,9.9,4.6,8.9,8.5
		c-1,3.9-5.6,15.4-3.3,10.8c2.3-4.6,2.3-5.6,9.9-7.6c7.6-2,9.9-4.3,12.2-6.2c2.3-2,3-4.6,3-4.6s0.3-7.9,0-14.8
		c-0.3-6.9-2.6-8.5-3-10.5c-0.3-2-0.3-6.3-1.3-4.6c-1,1.6-1.6,0.7-2.6-2.3c-1-3,2.3-2.6-0.3-5.9c-2.7-3.3-5.3,0-7.9,4.3
		c-2.6,4.3-1.6,2.3-2,0.3c-0.3-2-0.3-6.6-0.3-6.6s-4.9-9.9-6.6-6.2c-1.7,3.6-7.6,17.1-7.6,19.1s-1,8.9-3.3,10.8
		c-2.3,2-5.6,4.3-8.2,0.7c-2.7-3.6-13.6-5.9-15.2-4.9c-1.6,1-12.9-3.6-12.9-5.3C318.1,148.3,319.7,146.6,315.8,146z"/>
	<path class="st3" d="M295.3,139.4c-4.6-1.6-6.6,3-5.3-3c1.3-5.9-6.3-0.3-6.6-3.3c-0.3-3,2.3-4.3,3.3-6.9c1-2.6,3.6-3,5.3-2.6
		c1.6,0.3,1.6,0.6,5.9-1.6c4.3-2.3,3.3-3.3,3.6-4.9c0.3-1.6,3.6-1.6,1-4.6c-2.6-3-9.9-1.6-7.3-3.9c2.6-2.3,2-3.6,5.3-2
		c3.3,1.6,1.3,2.6,9.2,0.7c7.9-2,1.6-2.6,5.3-3.9c3.6-1.3,4.3,0.3,4.9-3c0.7-3.3-0.3-3.6,2-3c2.3,0.7,9.6,0.3,15.5,2.6
		c6,2.3,13.9,5.3,18.8,9.2c4.9,3.9,8.9,7.2,10.2,9.2c1.3,2,0.3,0.3-4,1.3c-4.3,1-13.6,0-10.6,2.6c3,2.6,8.6,2,7.6,3.6
		c-1,1.6,0.7,3.3-1,5.6c-1.6,2.3,2.3,14.5,0,11.2c-2.3-3.3-11.9-12.5-14.2-9.9c-2.3,2.6-1,0.7,1.3,3c2.3,2.3,4.6,2,6.3,5.9
		c1.6,3.9,6,6.3-2.6,5.6c-8.6-0.7-14.2-1.3-14.2-3.3c0-2-2.3-0.3-1-5.9c1.3-5.6,6.3-4.6,0.7-6.3c-5.6-1.6-3.6-3.9-6.3-1.3
		c-2.7,2.6-4,1.3-3,5.2c1,3.9,4,5.3,0,4.6c-4-0.7-4,1.3-6,0.3c-2-1-5,0.7-2-3.9c3-4.6,2.7-6.9,0.7-7.9c-2-1-3-2-5.6-2.6
		c-2.7-0.6-2-7.5-8.9,0c-6.9,7.6-4,3.9-5.3,7.6c-1.3,3.6-0.3,4.9-0.3,4.9S299.9,141.1,295.3,139.4"/>
	<path class="st3" d="M268.2,111.2c0,0-9.9,5.2-14.5,11.8c-4.6,6.6-13.5,22.8-15.2,30.6c-2,9.2-1.3,19.7-0.3,23.3
		c1,3.6,0.3,10.8,1.3,5.6c1-5.3,3.6-6.3,5.3-4.3c1.7,2,7.6,9.2,4.6-1.3c-3-10.5-9.9,2.3-3.3-12.2c6.6-14.4,8.3-15.8,7.3-19
		c-1-3.3-1.3-10.2,1.6-12.8c3-2.6,1-11.8,5.3-8.9c4.3,3,3.6,8.9,5.6,1c2-7.9-2.6-5.9,2.6-8.5C273.8,113.8,268.2,111.2,268.2,111.2"
		/>
	<path class="st7" d="M268.2,111.2c0,0-9.9,5.2-14.5,11.8c-4.6,6.6-13.5,22.8-15.2,30.6c-2,9.2-1.3,19.7-0.3,23.3
		c1,3.6,0.3,10.8,1.3,5.6c1-5.3,3.6-6.3,5.3-4.3c1.7,2,7.6,9.2,4.6-1.3c-3-10.5-9.9,2.3-3.3-12.2c6.6-14.4,8.3-15.8,7.3-19
		c-1-3.3-1.3-10.2,1.6-12.8c3-2.6,1-11.8,5.3-8.9c4.3,3,3.6,8.9,5.6,1c2-7.9-2.6-5.9,2.6-8.5C273.8,113.8,268.2,111.2,268.2,111.2z"
		/>
	<path class="st1" d="M271.5,193c-0.7-4.6,1.3-8.9-0.7-4.6c-2,4.3-2.3,1.3-0.7,4.9c1.6,3.6-0.3,5.3-0.3,5.3S272.2,197.6,271.5,193"
		/>
	<path class="st7" d="M271.5,193c-0.7-4.6,1.3-8.9-0.7-4.6c-2,4.3-2.3,1.3-0.7,4.9c1.6,3.6-0.3,5.3-0.3,5.3S272.2,197.6,271.5,193z"
		/>
	<path class="st3" d="M359.1,172.3c4,5.2,3,6.9,3,6.9s-2,2.3-1.3,4.3c0.7,2,2.7,0.3,2,4.3c-0.7,3.9-2,6.9-0.3,6.6
		c1.6-0.3,0.7,2.3,2.7-1c2-3.3-6.6-3.3,3-4.3c9.6-1,7.9-1,8.6-4.3c0.7-3.3-1.3-5.6-4-7.6C370,175.2,355.1,167,359.1,172.3"/>
	<path class="st7" d="M359.1,172.3c4,5.2,3,6.9,3,6.9s-2,2.3-1.3,4.3c0.7,2,2.7,0.3,2,4.3c-0.7,3.9-2,6.9-0.3,6.6
		c1.6-0.3,0.7,2.3,2.7-1c2-3.3-6.6-3.3,3-4.3c9.6-1,7.9-1,8.6-4.3c0.7-3.3-1.3-5.6-4-7.6C370,175.2,355.1,167,359.1,172.3z"/>
	<path class="st3" d="M293.3,231.4c1-3.3-1-4.3,1-3.9c2,0.3,4,1.3,5-0.7c1-2-1-2.3,2.3-2.3c3.3,0,6.3-5.9,5.6-1
		c-0.7,4.9-4.3,6.9-4.3,6.9s-4.6,1.3-5.9,2.6c-1.3,1.3,0.7,4.6-2.7,3.6c-3.3-1-7.3-3.6-5.9-3.3C289.7,233.7,292.3,234.7,293.3,231.4
		"/>
	<path class="st7" d="M293.3,231.4c1-3.3-1-4.3,1-3.9c2,0.3,4,1.3,5-0.7c1-2-1-2.3,2.3-2.3c3.3,0,6.3-5.9,5.6-1
		c-0.7,4.9-4.3,6.9-4.3,6.9s-4.6,1.3-5.9,2.6c-1.3,1.3,0.7,4.6-2.7,3.6c-3.3-1-7.3-3.6-5.9-3.3C289.7,233.7,292.3,234.7,293.3,231.4
		z"/>
	<path class="st8" d="M268.2,111.2c0,0-9.9,5.2-14.5,11.8c-4.6,6.6-13.5,22.8-15.2,30.6c-2,9.2-1.3,19.7-0.3,23.3
		c1,3.6,0.3,10.8,1.3,5.6c1-5.3,3.6-6.3,5.3-4.3c1.7,2,6.9,9.9,4-0.6c-3-10.5-9.2,0-2.7-14.5c6.6-14.5,8.3-14.1,7.3-17.4
		c-1-3.3-2.7-9.5,0.3-12.2c3-2.6,2.3-12.5,6.6-9.5c4.3,3,3.6,8.9,5.6,1c2-7.9-2.6-5.9,2.6-8.5C273.8,113.8,268.2,111.2,268.2,111.2"
		/>
	<path class="st9" d="M315.8,146c-4-0.7-1.3-3-4.6-1c-3.3,2-0.3,1.3-3.6-0.7c-3.3-2-3-1.6-4.3-0.3c-1.3,1.3,2.6,3-2.3,4.3
		c-5,1.3-1.3,3.3-4.6,4.3c-3.3,1-5.3-3.3-5.3-3.3s-4.6-1.3-5,1.6c-0.3,3-5.3,3.9-6.6,5.6c-1.3,1.6-4.3-3-5.3-0.7
		c-1,2.3-4-3.3-5.6,1.3c-1.6,4.6,2.3,15.4,4.3,17.7c2,2.3,6-2.6,8.9,5.2c3,7.9,7.6,9.9,9.2,13.1s4.3,1.3,4.9,5.9
		c0.7,4.6,1,4.9-2,9.9c-3,4.9-5,3.3-6,7.2c-1,3.9-0.3,4.9-2.7,7.9c-2.3,3,2,1.3-4,3.6c-6,2.3-8.9,0.3-7.6,2.3c1.3,2,8.3,5.6,9.6,3.6
		c1.3-2,0-4.3,7.6-7.9c7.6-3.6,10.6-8.2,16.8-9.9c6.3-1.6,7.3-0.3,10.9-8.9c3.6-8.5,3.6-23,11.9-23c8.3,0,2-0.3,4.6-7.2
		c2.7-6.9-1.3-7.6,3.6-9.2c5-1.6,3.6-2.6,5.6-2c2,0.7,3-0.3,5,1c2,1.3,7.6,2.3,7.6,2.3s-0.3-1,3.3,4.6c3.6,5.6,8.3,5.9,7.3,9.9
		c-1,3.9-5.6,15.4-3.3,10.8c2.3-4.6,2-7.2,9.6-9.2c7.6-2,10.2-2.6,12.5-4.6c2.3-2,3-4.6,3-4.6s0.3-7.9,0-14.8
		c-0.3-6.9-2.6-8.5-3-10.5c-0.3-2-0.3-6.3-1.3-4.6c-1,1.6-1.6,0.7-2.6-2.3c-1-3,2.3-2.6-0.3-5.9c-2.7-3.3-5.3,0-7.9,4.3
		c-2.6,4.3-1.6,2.3-2,0.3c-0.3-2-0.3-6.6-0.3-6.6s-4.9-9.9-6.6-6.2c-1.7,3.6-7.6,17.1-7.6,19.1s-1,8.9-3.3,10.8
		c-2.3,2-5.6,4.3-8.2,0.7c-2.7-3.6-13.6-5.9-15.2-4.9c-1.6,1-12.9-3.6-12.9-5.3C318.1,148.3,319.7,146.6,315.8,146"/>
	<path class="st8" d="M271.9,193.3c-0.7-4.6,1-9.2-1-4.9c-2,4.3-2.3,1.3-0.7,4.9c1.6,3.6-0.3,5.2-0.3,5.2S272.5,197.9,271.9,193.3"
		/>
	<path class="st8" d="M359.1,172.3c4,5.2,3,6.9,3,6.9s-2,2.3-1.3,4.3c0.7,2,2.7,0.3,2,4.3c-0.7,3.9-2,6.9-0.3,6.6
		c1.6-0.3,0.7,2.3,2.7-1c2-3.3-6.6-3.3,3-4.3c9.6-1,7.9-1,8.6-4.3c0.7-3.3-1.3-5.6-4-7.6C370,175.2,355.1,167,359.1,172.3"/>
	<path class="st8" d="M293.3,231.4c1-3.3,0.3-2,2.3-1.6c2,0.3,2.6-1,3.6-3c1-2-1-2.3,2.3-2.3c3.3,0,6.3-5.9,5.6-1
		c-0.7,4.9-4.3,6.9-4.3,6.9s-4.6,1.3-5.9,2.6c-1.3,1.3,0.7,4.6-2.7,3.6c-3.3-1-7.3-3.6-5.9-3.3C289.7,233.7,292.3,234.7,293.3,231.4
		"/>
	<path class="st3" d="M295.3,139.4c-4.6-1.6-6.6,3-5.3-3c1.3-5.9-6.3-0.3-6.6-3.3c-0.3-3,2.3-4.3,3.3-6.9c1-2.6,3.6-3,5.3-2.6
		c1.6,0.3,1.6,0.6,5.9-1.6c4.3-2.3,3.3-3.3,3.6-4.9c0.3-1.6,3.6-1.6,1-4.6c-2.6-3-9.9-1.6-7.3-3.9c2.6-2.3,2-3.6,5.3-2
		c3.3,1.6,1.3,2.6,9.2,0.7c7.9-2,1.6-2.6,5.3-3.9c3.6-1.3,4.3,0.3,4.9-3c0.7-3.3-0.3-3.6,2-3c2.3,0.7,9.6,0.3,15.5,2.6
		c6,2.3,13.9,5.3,18.8,9.2c4.9,3.9,8.9,7.2,10.2,9.2c1.3,2,0.3,0.3-4,1.3c-4.3,1-13.6,0-10.6,2.6c3,2.6,10.9,3,9.9,4.6
		c-1,1.6-3.3,2.6-4.9,4.9c-1.7,2.3,4,14.1,1.6,10.8c-2.3-3.3-11.9-12.5-14.2-9.9c-2.3,2.6-1,0.7,1.3,3c2.3,2.3,4.6,2,6.3,5.9
		c1.6,3.9,6,6.3-2.6,5.6c-8.6-0.7-14.2-1.3-14.2-3.3c0-2-2.3-0.3-1-5.9c1.3-5.6,6.3-4.6,0.7-6.3c-5.6-1.6-3.6-3.9-6.3-1.3
		c-2.7,2.6-4,1.3-3,5.2c1,3.9,4,5.3,0,4.6c-4-0.7-4,1.3-6,0.3c-2-1-5,0.7-2-3.9c3-4.6,2.7-6.9,0.7-7.9c-2-1-3-2-5.6-2.6
		c-2.7-0.6-2-7.5-8.9,0c-6.9,7.6-4,3.9-5.3,7.6c-1.3,3.6-0.3,4.9-0.3,4.9S299.9,141.1,295.3,139.4"/>
	<path class="st7" d="M295.3,139.4c-4.6-1.6-6.6,3-5.3-3c1.3-5.9-6.3-0.3-6.6-3.3c-0.3-3,2.3-4.3,3.3-6.9c1-2.6,3.6-3,5.3-2.6
		c1.6,0.3,1.6,0.6,5.9-1.6c4.3-2.3,3.3-3.3,3.6-4.9c0.3-1.6,3.6-1.6,1-4.6c-2.6-3-9.9-1.6-7.3-3.9c2.6-2.3,2-3.6,5.3-2
		c3.3,1.6,1.3,2.6,9.2,0.7c7.9-2,1.6-2.6,5.3-3.9c3.6-1.3,4.3,0.3,4.9-3c0.7-3.3-0.3-3.6,2-3c2.3,0.7,9.6,0.3,15.5,2.6
		c6,2.3,13.9,5.3,18.8,9.2c4.9,3.9,8.9,7.2,10.2,9.2c1.3,2,0.3,0.3-4,1.3c-4.3,1-13.6,0-10.6,2.6c3,2.6,10.9,3,9.9,4.6
		c-1,1.6-3.3,2.6-4.9,4.9c-1.7,2.3,4,14.1,1.6,10.8c-2.3-3.3-11.9-12.5-14.2-9.9c-2.3,2.6-1,0.7,1.3,3c2.3,2.3,4.6,2,6.3,5.9
		c1.6,3.9,6,6.3-2.6,5.6c-8.6-0.7-14.2-1.3-14.2-3.3c0-2-2.3-0.3-1-5.9c1.3-5.6,6.3-4.6,0.7-6.3c-5.6-1.6-3.6-3.9-6.3-1.3
		c-2.7,2.6-4,1.3-3,5.2c1,3.9,4,5.3,0,4.6c-4-0.7-4,1.3-6,0.3c-2-1-5,0.7-2-3.9c3-4.6,2.7-6.9,0.7-7.9c-2-1-3-2-5.6-2.6
		c-2.7-0.6-2-7.5-8.9,0c-6.9,7.6-4,3.9-5.3,7.6c-1.3,3.6-0.3,4.9-0.3,4.9S299.9,141.1,295.3,139.4z"/>
	<path class="st8" d="M295.3,139.4c-4.6-1.6-6.6,3-5.3-3c1.3-5.9-6.3-0.3-6.6-3.3c-0.3-3,2.3-4.3,3.3-6.9c1-2.6,3.6-3,5.3-2.6
		c1.6,0.3,1.6,0.6,5.9-1.6c4.3-2.3,3.3-3.3,3.6-4.9c0.3-1.6,3.6-1.6,1-4.6c-2.6-3-9.9-1.6-7.3-3.9c2.6-2.3,2-3.6,5.3-2
		c3.3,1.6,1.3,2.6,9.2,0.7c7.9-2,1.6-2.6,5.3-3.9c3.6-1.3,4.3,0.3,4.9-3c0.7-3.3-0.3-3.6,2-3c2.3,0.7,9.6,0.3,15.5,2.6
		c6,2.3,13.9,5.3,18.8,9.2c4.9,3.9,8.9,7.2,10.2,9.2c1.3,2,0.3,0.3-4,1.3c-4.3,1-13.6,0-10.6,2.6c3,2.6,9.6,4.3,8.6,5.9
		c-1,1.6-2.3,0.3-4,2.6c-1.6,2.3,4.3,15.1,2,11.8c-2.3-3.3-11.9-12.5-14.2-9.9c-2.3,2.6-1,0.7,1.3,3c2.3,2.3,2.6,1.3,4.3,5.3
		c1.7,3.9,7.9,6.9-0.6,6.2c-8.6-0.7-14.2-1.3-14.2-3.3c0-2-2.3-0.3-1-5.9c1.3-5.6,6.3-4.6,0.7-6.3c-5.6-1.6-3.6-3.9-6.3-1.3
		c-2.7,2.6-4,1.3-3,5.2c1,3.9,4,5.3,0,4.6c-4-0.7-4,1.3-6,0.3c-2-1-5,0.7-2-3.9c3-4.6,2.7-6.9,0.7-7.9c-2-1-3-2-5.6-2.6
		c-2.7-0.6-2-7.5-8.9,0c-6.9,7.6-4,3.9-5.3,7.6c-1.3,3.6-0.3,4.9-0.3,4.9S299.9,141.1,295.3,139.4"/>
	<path class="st3" d="M253.4,118.5l-6.5,6.6c0,0-65.3-5.8-77.8,4.2c-12.5,10-12.2,13-8.9,19.7c3.3,6.7,14.7,20.7,31.1,28.9
		c16.3,8.1,39,19.3,54,24.3c15,5,54,16.7,62.4,18.6c8.4,1.9,53.7,9.9,63.5,10.7c9.8,0.7,46.9,2.8,60.6,0.7
		c13.8-2.2,30.7-6.7,33.1-11.4c2.5-4.7,3-7.4,3.1-10.7c0-3.3-4.4-15.5-17.8-23.4c-13.4-7.8-59.4-27.4-59.4-27.4l0.5-8
		c0,0,57.4,24.2,62.6,27.8c5.2,3.6,17.8,9.7,25,19.8c7.2,10.2,7.9,13.2,6.7,18.8c-1.2,5.6-7.7,11.2-15.6,14.3
		c-7.9,3.2-30.8,8-51.5,7.7c-20.7-0.3-48.5-3-55.3-4.1c-6.8-1.1-45.1-7.3-51.2-9c-6.1-1.7-35.4-8.9-50-13.9
		c-14.7-4.9-36-12.3-48-17.7c-12-5.3-34.8-17.9-41.9-22.7c-7.1-4.8-23.7-20.3-25.3-27.2c-1.6-6.9,0.2-15.4,8.3-19.8
		c8-4.5,26.3-9.1,41.5-9.8C211.7,114.9,253.4,118.5,253.4,118.5"/>
	<path class="st7" d="M253.4,118.5l-6.5,6.6c0,0-65.3-5.8-77.8,4.2c-12.5,10-12.2,13-8.9,19.7c3.3,6.7,14.7,20.7,31.1,28.9
		c16.3,8.1,39,19.3,54,24.3c15,5,54,16.7,62.4,18.6c8.4,1.9,53.7,9.9,63.5,10.7c9.8,0.7,46.9,2.8,60.6,0.7
		c13.8-2.2,30.7-6.7,33.1-11.4c2.5-4.7,3-7.4,3.1-10.7c0-3.3-4.4-15.5-17.8-23.4c-13.4-7.8-59.4-27.4-59.4-27.4l0.5-8
		c0,0,57.4,24.2,62.6,27.8c5.2,3.6,17.8,9.7,25,19.8c7.2,10.2,7.9,13.2,6.7,18.8c-1.2,5.6-7.7,11.2-15.6,14.3
		c-7.9,3.2-30.8,8-51.5,7.7c-20.7-0.3-48.5-3-55.3-4.1c-6.8-1.1-45.1-7.3-51.2-9c-6.1-1.7-35.4-8.9-50-13.9
		c-14.7-4.9-36-12.3-48-17.7c-12-5.3-34.8-17.9-41.9-22.7c-7.1-4.8-23.7-20.3-25.3-27.2c-1.6-6.9,0.2-15.4,8.3-19.8
		c8-4.5,26.3-9.1,41.5-9.8C211.7,114.9,253.4,118.5,253.4,118.5z"/>
	<path class="st8" d="M253.2,116.6l-6.8,5.4c0,0-57-5.2-72.6,3.1c-14.1,7.5-15,18.1-11.7,24.8c3.3,6.7,11.7,17.7,28.1,25.9
		c16.3,8.2,38.9,19.3,53.9,24.3c15,5,54,16.7,62.4,18.6s53.7,10,63.5,10.7c9.8,0.7,46.9,2.8,60.6,0.7c13.8-2.2,30.7-6.7,33.1-11.4
		c2.5-4.7,3-7.4,3.1-10.7c0-3.3-4.4-15.5-17.8-23.4c-13.4-7.8-55.3-28.4-55.3-28.4l0.5-8c0,0,53.3,25.1,58.6,28.7
		c5.2,3.6,17.8,9.7,25,19.8c7.2,10.2,7.9,13.2,6.7,18.8c-1.2,5.6-7.7,11.2-15.6,14.4c-7.9,3.1-29.6,5.4-50.3,5.1
		c-20.7-0.3-50.1-3.2-56.9-4.3c-6.8-1.1-43.9-5.9-50-7.5s-36.2-7.7-50.8-12.6c-14.7-5-36-12.3-48-17.7c-12-5.3-34.8-17.9-41.9-22.7
		c-7.1-4.8-23.7-20.3-25.3-27.2c-1.6-6.9,0.2-15.4,8.3-19.8c8-4.5,26.3-9.1,41.5-9.8C210.6,112.8,253.2,116.6,253.2,116.6"/>
</g>
</svg>
